# xmcd
#
# Track frame offsets: 
#        150
#        11602
#        32752
#        51125
#        74125
#        97275
#        121795
#        142790
#        163582
#        182265
#
# Disc length: 2716 seconds
#
# Revision: 5
# Processed by: cddbd v1.5.2PL0 Copyright (c) Steve Scherf et al.
# Submitted via: ExactAudioCopy v1.1
#
DISCID=820a9a0a
DTITLE=ALFEE - THE BEST SONGS 
DYEAR=1990
DGENRE=JPop
TTITLE0=心の鍵
TTITLE1=恋人達のペイブメント
TTITLE2=マンハッタン・レイン
TTITLE3=霧のソフィア
TTITLE4=孤独のHERO
TTITLE5=至上の愛
TTITLE6=シンデレラは眠れない
TTITLE7=北のHOTEL (リメイクバージョン)
TTITLE8=悲しき慕情
TTITLE9=A LAST SONG
EXTD=YEAR: 1990
EXTT0=
EXTT1=
EXTT2=
EXTT3=
EXTT4=
EXTT5=
EXTT6=
EXTT7=
EXTT8=
EXTT9=
PLAYORDER=
